0
SECTION
2
HEADER
9
$ACADVER
1
AC1015
0
ENDSEC
0
SECTION
2
TABLES
0
TABLE
2
LTYPE
70
1
0
LTYPE
2
CONTINUOUS
70
0
3
Solid line
72
65
73
0
40
0.0
0
ENDTAB
0
TABLE
2
LAYER
70
2
0
LAYER
2
0
70
0
62
7
6
CONTINUOUS
370
-1
0
LAYER
2
GC-CAODO
70
0
62
3
6
CONTINUOUS
370
-1
0
ENDTAB
0
ENDSEC
0
SECTION
2
BLOCKS
0
BLOCK
100
AcDbEntity
8
0
100
AcDbBlockBegin
2
MOC_CAO_DO
70
2
10
0.0
20
0.0
30
0.0
3
MOC_CAO_DO
1

0
LINE
100
AcDbEntity
8
0
100
AcDbLine
10
-100.0
20
-100.0
30
0.0
11
0.0
21
0.0
31
0.0
0
LINE
100
AcDbEntity
8
0
100
AcDbLine
10
0.0
20
0.0
30
0.0
11
100.0
21
-100.0
31
0.0
0
LINE
100
AcDbEntity
8
0
100
AcDbLine
10
-100.0
20
-100.0
30
0.0
11
100.0
21
-100.0
31
0.0
0
ATTDEF
100
AcDbEntity
8
0
100
AcDbText
10
120.0
20
20.0
30
0.0
40
80.0
1
0.000
100
AcDbAttributeDefinition
3
Cao do
2
CAO_DO
70
0
0
ENDBLK
100
AcDbEntity
8
0
100
AcDbBlockEnd
0
ENDSEC
0
SECTION
2
ENTITIES
0
LINE
100
AcDbEntity
8
0
100
AcDbLine
10
0.0
20
0.0
30
0.0
11
5000.0
21
0.0
31
0.0
0
ENDSEC
0
EOF
